<svg width="64" height="58" viewBox="0 0 64 58" fill="none" xmlns="http://www.w3.org/2000/svg">
<path d="M63.9375 29C63.9375 24.9167 59.5625 21.125 52.2708 18.5L50.9583 18.0625V17.4792C52.5625 9.45836 51.3958 3.4792 47.75 1.2917C44.1042 -0.895803 38.7083 1.14586 32.875 6.25003L32 7.12503L31.7083 6.83336H31.4167C25.4375 1.2917 19.6042 -0.604137 15.9583 1.43753C12.3125 3.4792 11.2917 9.1667 12.75 16.6042C12.9034 17.0774 13.0013 17.5668 13.0417 18.0625L11.4375 18.6459C4.29167 21.125 0.0625 24.9167 0.0625 29C0.0625 33.0834 4.72917 37.1667 12.0208 39.7917L13.0417 40.0834C12.8615 40.5996 12.7631 41.1409 12.75 41.6875C11.2917 48.9792 12.6042 54.5209 15.9583 56.5625C19.3125 58.6042 25.4375 56.7084 31.2708 51.6042L32.1458 50.875L33.3125 52.0417C37.3958 55.5417 41.4792 57.4375 44.6875 57.4375C45.8192 57.4633 46.9339 57.1593 47.8958 56.5625C51.5417 54.5209 52.8542 48.5417 51.25 40.9584V40.6667C51.187 40.4267 51.1383 40.1833 51.1042 39.9375H51.5417C59.2708 37.1667 63.9375 33.2292 63.9375 29ZM59.7083 29C59.7083 30.75 56.5 33.8125 50.2292 35.8542H49.9375C49.173 33.5083 48.2472 31.2182 47.1667 29C48.1875 26.6667 49.0625 24.3334 49.7917 22.1459L50.9583 22.4375C56.7917 24.4792 59.7083 27.25 59.7083 29ZM36.0833 48.8334L34.9167 47.9584C36.5865 46.1082 38.1448 44.1603 39.5833 42.125L47.0208 40.9584C47.1667 41.25 47.1667 41.5417 47.3125 41.6875C47.8322 44.329 47.9306 47.0361 47.6042 49.7084C47.3993 50.9864 46.7852 52.1634 45.8542 53.0625C44.3958 53.9375 40.4583 52.7709 36.0833 48.8334ZM34.1875 42.4167L32.1458 45.0417L29.8125 42.4167H34.1875ZM14.2083 22C14.9413 24.4044 15.868 26.7454 16.9792 29C15.8671 31.3045 14.9405 33.694 14.2083 36.1459L13.3333 35.8542C10.7796 35.0482 8.40357 33.7612 6.33333 32.0625C5.79727 31.7238 5.33847 31.2761 4.98672 30.7485C4.63498 30.2208 4.39817 29.6251 4.29167 29C4.29167 27.25 7.20833 24.4792 12.75 22.5834L14.2083 22ZM29.8125 15.5834L32 13.1042L34.1875 15.5834H29.8125ZM45.8542 4.93753C47.4583 5.81253 48.3333 10.1875 47.0208 16.6042C47.0275 16.6832 47.0181 16.7627 46.993 16.838C46.9679 16.9132 46.9278 16.9825 46.875 17.0417L39.5833 15.875C38.1448 13.8398 36.5865 11.8919 34.9167 10.0417L35.7917 9.31253C40.4583 5.2292 44.25 4.06253 45.8542 4.93753ZM21.5 20.3959L20.3333 22.2917L19.3125 24.1875C18.875 23.1667 18.5833 22.1459 18.1458 20.9792L21.5 20.3959ZM18.1458 37.0209C18.5833 36 18.875 34.9792 19.3125 33.8125L20.3333 35.7084L21.5 37.6042L18.1458 37.0209ZM42.5 29C41.7579 30.5989 40.9303 32.1567 40.0208 33.6667C39.1458 35.2709 38.125 36.7292 37.25 38.1875H26.75C25.7292 36.5834 24.7083 35.125 23.9792 33.6667C23.0625 32.1608 22.2347 30.6026 21.5 29C22.2076 27.3842 23.0364 25.8242 23.9792 24.3334C24.817 22.8225 25.7422 21.3616 26.75 19.9584C30.2439 19.6669 33.7561 19.6669 37.25 19.9584C38.2708 21.4167 39.1458 22.875 40.0208 24.3334C40.9636 25.8242 41.7924 27.3842 42.5 29ZM43.6667 22.2917L42.5 20.3959L45.8542 21.125C45.5294 22.1692 45.1398 23.192 44.6875 24.1875L43.6667 22.2917ZM42.5 37.6042L43.6667 35.7084L44.6875 33.6667L46 37.0209L42.5 37.6042ZM28.9375 9.89586H29.0833L24.4167 15.7292L17.125 16.8959C16.9792 16.4584 16.9792 16.1667 16.8333 15.7292C15.6667 9.75003 16.5417 5.6667 18 4.93753C18.3872 4.68323 18.8541 4.57947 19.3125 4.64586C21.3542 4.64586 24.8542 6.1042 28.7917 9.6042L28.9375 9.89586ZM16.8333 42.4167C16.8599 41.9664 16.9584 41.5233 17.125 41.1042L24.5625 42.125C25.9646 44.1874 27.5248 46.1378 29.2292 47.9584L28.6458 48.5417C26.6576 50.3834 24.3295 51.8199 21.7917 52.7709C21.2349 53.0625 20.625 53.2386 19.9985 53.2888C19.372 53.3389 18.7419 53.2619 18.1458 53.0625C16.5417 52.1875 15.6667 48.25 16.8333 42.4167Z" fill="#fff"/>
<path d="M32 22.5834C30.7251 22.5544 29.4705 22.9059 28.3962 23.5932C27.322 24.2804 26.4769 25.2721 25.9688 26.4417C25.4607 27.6114 25.3127 28.9059 25.5435 30.1601C25.7744 31.4142 26.3737 32.5712 27.265 33.4832C28.1564 34.3952 29.2992 35.021 30.5477 35.2806C31.7963 35.5403 33.0938 35.422 34.2748 34.9409C35.4559 34.4598 36.4667 33.6378 37.1785 32.5796C37.8902 31.5215 38.2705 30.2753 38.2708 29C38.2713 27.3232 37.6153 25.7128 36.4433 24.5136C35.2713 23.3143 33.6764 22.6215 32 22.5834Z" fill="#fff"/>
</svg>
