<svg width="70" height="70" viewBox="0 0 70 70" fill="none" xmlns="http://www.w3.org/2000/svg">
<path d="M0 0H70V70H0V0Z" fill="#fff"/>
<path d="M18.4056 58.497L23.7623 55.2552C24.7959 57.0875 25.7359 58.6378 27.991 58.6378C30.1525 58.6378 31.5156 57.7924 31.5156 54.5035V32.1368H38.0937V54.5964C38.0937 61.4097 34.0998 64.511 28.2729 64.511C23.0106 64.511 19.9563 61.7862 18.4056 58.497ZM41.6667 57.7921L47.0228 54.6911C48.4329 56.9937 50.2655 58.6852 53.5073 58.6852C56.2332 58.6852 57.9712 57.3223 57.9712 55.4427C57.9712 53.1874 56.1857 52.3884 53.1784 51.0732L51.5342 50.3677C46.7882 48.3478 43.6401 45.8103 43.6401 40.4537C43.6401 35.5198 47.399 31.7606 53.2727 31.7606C57.4547 31.7606 60.4619 33.2175 62.6232 37.0234L57.5012 40.3129C56.3732 38.2925 55.1521 37.4937 53.2725 37.4937C51.3458 37.4937 50.1241 38.7155 50.1241 40.3129C50.1241 42.2863 51.3458 43.0855 54.165 44.3073L55.8094 45.0119C61.4012 47.4086 64.5493 49.8518 64.5493 55.3489C64.5493 61.27 59.8976 64.5118 53.6482 64.5118C47.5398 64.5118 43.593 61.5984 41.6667 57.7921Z" fill="#5C485A"/>
</svg>
